<?xml version="1.0" standalone="no"?><!DOCTYPE svg PUBLIC "-//W3C//DTD SVG 1.1//EN" "http://www.w3.org/Graphics/SVG/1.1/DTD/svg11.dtd"><svg class="icon" width="200px" height="194.86px" viewBox="0 0 1051 1024" version="1.1" xmlns="http://www.w3.org/2000/svg"><path fill="#EEECBB" d="M193.042 876.972l706.061-690.665c16.014-15.666 16.298-41.35 0.633-57.365s-41.35-16.298-57.365-0.633L136.31 818.974c-16.014 15.667-16.298 41.35-0.633 57.365s41.35 16.298 57.365 0.633c8.008-7.833 8.149-20.675 0.316-28.681-7.833-8.008-20.675-8.149-28.681-0.316L870.738 157.31 164.677 847.975c-8.008 7.833-8.149 20.675-0.316 28.681s20.675 8.149 28.681 0.316zM136.31 186.309l706.061 690.665c16.014 15.666 41.698 15.383 57.365-0.633 15.666-16.014 15.382-41.698-0.633-57.365L193.042 128.311c-16.014-15.667-41.698-15.382-57.365 0.633-15.667 16.014-15.382 41.698 0.633 57.365 8.008 7.833 20.849 7.692 28.681-0.316 7.833-8.008 7.692-20.849-0.316-28.681l706.061 690.665-706.061-690.665c-8.008-7.833-20.849-7.692-28.681 0.316s-7.692 20.849 0.316 28.681z" /></svg>